<?xml version="1.0" standalone="no"?>
<!DOCTYPE svg PUBLIC "-//W3C//DTD SVG 20010904//EN"
 "http://www.w3.org/TR/2001/REC-SVG-20010904/DTD/svg10.dtd">
<svg version="1.0" xmlns="http://www.w3.org/2000/svg"
 width="1000.000000pt" height="1000.000000pt" viewBox="0 0 1000.000000 1000.000000"
 preserveAspectRatio="xMidYMid meet">
<metadata>
Created by potrace 1.11, written by Peter Selinger 2001-2013
</metadata>
<g transform="translate(0.000000,1000.000000) scale(0.100000,-0.100000)"
fill="#000000" stroke="none">
<path d="M0 5000 l0 -5000 5000 0 5000 0 0 5000 0 5000 -5000 0 -5000 0 0
-5000z m9625 -20 l0 -4635 -4637 -3 -4638 -2 0 4640 0 4640 4638 -2 4637 -3 0
-4635z"/>
<path d="M7185 8963 c-106 -22 -173 -41 -243 -71 -225 -94 -406 -273 -503
-499 l-34 -78 -3 -1107 -2 -1107 -38 -10 c-32 -8 -539 -104 -772 -147 -41 -7
-133 -25 -205 -38 -71 -14 -215 -41 -320 -61 -104 -19 -248 -46 -320 -60 -71
-13 -238 -45 -370 -70 -412 -77 -508 -96 -580 -110 -38 -8 -99 -19 -135 -25
-36 -6 -73 -13 -83 -16 -18 -6 -18 19 -15 608 4 555 6 618 22 668 63 194 210
307 461 354 359 69 626 275 741 574 35 91 45 269 19 357 -115 398 -620 543
-1075 309 -201 -103 -369 -290 -435 -483 -50 -147 -48 -59 -44 -2561 3 -1938
2 -2355 -9 -2405 -30 -130 -106 -244 -211 -313 -81 -54 -119 -69 -255 -102
-248 -61 -376 -131 -528 -288 -146 -152 -232 -337 -244 -524 -25 -381 241
-660 640 -676 55 -2 109 1 120 6 12 6 53 18 91 27 218 51 433 202 558 391 73
112 136 267 147 366 6 48 10 577 10 1261 0 647 2 1177 4 1177 2 0 37 7 77 15
41 8 135 26 209 39 74 14 232 44 350 66 118 22 274 52 345 65 72 13 227 43
345 65 118 23 239 45 267 50 29 5 99 18 155 29 57 11 166 32 243 46 77 15 172
32 210 40 39 8 133 26 210 40 77 15 196 38 264 51 68 13 130 24 138 24 11 0
13 -109 13 -622 0 -352 -5 -661 -10 -711 -30 -263 -196 -424 -492 -477 -281
-51 -543 -249 -670 -505 -70 -140 -83 -195 -83 -350 0 -126 3 -147 26 -212 84
-228 269 -371 526 -406 209 -28 464 48 648 193 165 131 268 282 332 487 l28
88 5 2455 c4 1762 8 2463 16 2485 46 123 111 205 213 265 74 43 142 66 313
105 183 41 328 118 464 247 92 87 161 189 205 301 57 149 51 337 -16 466 -32
62 -93 136 -146 178 -65 52 -195 111 -281 128 -70 14 -244 19 -293 8z"/>
</g>
</svg>
